<?xml version="1.0" encoding="utf-8"?>
<!-- Generator: Adobe Illustrator 26.5.0, SVG Export Plug-In . SVG Version: 6.00 Build 0)  -->
<svg version="1.1" id="Layer_1" xmlns="http://www.w3.org/2000/svg" xmlns:xlink="http://www.w3.org/1999/xlink" x="0px" y="0px"
	 viewBox="0 0 238 254" style="enable-background:new 0 0 238 254;" xml:space="preserve">
<style type="text/css">
	.st0{fill-rule:evenodd;clip-rule:evenodd;}
</style>
<path class="st0" d="M58.51,85.2H183v109.58c0,7.38-6.03,13.41-13.41,13.41H71.92c-7.38,0-13.41-6.03-13.41-13.41V85.2L58.51,85.2z
	 M90.5,99.18c-3.3,0-6,2.7-6,6V187c0,3.3,2.7,6,6,6l0,0c3.3,0,6-2.7,6-6v-81.82C96.5,101.88,93.8,99.18,90.5,99.18L90.5,99.18
	L90.5,99.18z M120.75,99.18c-3.3,0-6,2.7-6,6V187c0,3.3,2.7,6,6,6l0,0c3.3,0,6-2.7,6-6v-81.82
	C126.75,101.88,124.05,99.18,120.75,99.18L120.75,99.18L120.75,99.18z M151,99.18c-3.3,0-6,2.7-6,6V187c0,3.3,2.7,6,6,6l0,0
	c3.3,0,6-2.7,6-6v-81.82C157,101.88,154.3,99.18,151,99.18L151,99.18L151,99.18z M101.43,39.52h38.65h0v0.02
	c3.13,0,5.98,1.28,8.04,3.33l0.01-0.01c2.05,2.05,3.32,4.9,3.32,8.05h0.02v0v8.69h28c5.01,0,9.11,4.1,9.11,9.11v9.11H52.93v-9.11
	c0-5.01,4.1-9.11,9.11-9.11h28v-8.69v0h0.02c0-3.13,1.28-5.98,3.33-8.04l-0.01-0.01c2.05-2.05,4.9-3.32,8.05-3.32L101.43,39.52
	L101.43,39.52L101.43,39.52z M140.08,48.98h-38.65h0v-0.02c-0.51,0-0.99,0.23-1.36,0.59h-0.02c-0.35,0.35-0.57,0.83-0.57,1.36h0.02
	v0v8.69h42.51v-8.69v0h0.02c0-0.51-0.23-0.99-0.59-1.36v-0.02c-0.35-0.35-0.83-0.57-1.36-0.57L140.08,48.98L140.08,48.98z"/>
</svg>
