<?xml version="1.0" encoding="utf-8"?>
<!-- Generator: Adobe Illustrator 26.5.0, SVG Export Plug-In . SVG Version: 6.00 Build 0)  -->
<svg version="1.1" xmlns="http://www.w3.org/2000/svg" xmlns:xlink="http://www.w3.org/1999/xlink" x="0px" y="0px"
	 viewBox="0 0 149.76 174.24" style="enable-background:new 0 0 149.76 174.24;" xml:space="preserve">
<g id="Background">
</g>
<g id="Objects">
	<path d="M118.44,62.98v2.44v70.07c0,3.92-3.19,7.11-7.11,7.11H38.82c-3.79,0-6.88-2.98-7.09-6.72v-9.88h8.09v4.14v4.34h70.51V65.42
		H93.61c-3.36,0-6.11-2.75-6.11-6.11V40.92H39.82v8.48h-8.11v-9.48c0-3.92,3.19-7.11,7.11-7.11H87.5h0.77
		c0.93,0,1.98,0.14,3.13,0.42c3.06,0.74,6.2,2.39,8.01,4.19l14.42,14.42c2.21,2.21,4.11,6.33,4.53,9.8l0,0l0,0
		C118.41,62.15,118.44,62.58,118.44,62.98z M75.67,111.19l3.84,11.07l-11.05-3.88L56,113.99l15.34-15.28L75.67,111.19z M60.29,113.4
		l9.72,3.42l4.09-4.08l-3.37-9.74L60.29,113.4z M36.94,64.16L21.59,79.43l32.19,32.32l15.34-15.28L36.94,64.16z M11.89,69.69
		l6.82,6.85l15.34-15.28l-6.81-6.85c-1.84-1.85-5.06-1.63-7.18,0.46l-7.67,7.64C10.28,64.62,10.06,67.85,11.89,69.69z"/>
</g>
</svg>
